<svg data-layout-strategy="perimeter" data-layout-center-x="680" data-layout-center-y="490" preserveAspectRatio="xMidYMid meet" font-family="system-ui, Microsoft YaHei, sans-serif" xmlns="http://www.w3.org/2000/svg" xmlns:xlink="http://www.w3.org/1999/xlink" viewBox="0 0 1360 912" role="img" aria-labelledby="saved-m10-wiring-title saved-m10-wiring-desc" style="width:100%;height:auto;display:block;max-width:1360px"><title id="saved-m10-wiring-title">全部任务模块连接图</title><desc id="saved-m10-wiring-desc">根据已选模块实时绘制0个元件及所有已确认接口。点击模块只高亮连接，不隐藏其他模块。完整套件已预连接，课堂只接USB。</desc><defs><linearGradient id="saved-m10-wiring-pcb" x2="0" y2="1"><stop stop-color="#356c9f"/><stop offset="1" stop-color="#214e7e"/></linearGradient><linearGradient id="saved-m10-wiring-metal" x2="1" y2="1"><stop stop-color="#e6edef"/><stop offset=".5" stop-color="#b2bcc1"/><stop offset="1" stop-color="#e6eaeb"/></linearGradient><radialGradient id="saved-m10-wiring-led" cx=".35" cy=".3"><stop stop-color="#ff8272"/><stop offset=".55" stop-color="#d92b28"/><stop offset="1" stop-color="#952a29"/></radialGradient><pattern id="saved-m10-wiring-grid" width="20" height="20" patternUnits="userSpaceOnUse"><circle cx="1" cy="1" r=".7" fill="#d6e1ea"/></pattern></defs><rect width="1360" height="912" rx="16" fill="#fff"/><text x="32" y="43" font-family="system-ui, Microsoft YaHei, sans-serif" font-size="28" fill="#172b43" font-weight="800" text-anchor="start">硬件连接 · 全部已选模块</text><text x="32" y="77" font-family="system-ui, Microsoft YaHei, sans-serif" font-size="20" fill="#63798c" font-weight="500" text-anchor="start">已选 0 个模块 · 添加、移除同步更新 · 点击模块只高亮</text><rect x="32" y="96" width="1296" height="53" rx="9" fill="#fff4e6" stroke="#f2d4ac"/><text x="51" y="130" font-family="system-ui, Microsoft YaHei, sans-serif" font-size="22" fill="#925227" font-weight="700" text-anchor="start">整板已连好：图为板内连接的等效展开，课堂只接 USB。</text><rect x="32" y="164" width="1296" height="652" fill="url(#saved-m10-wiring-grid)"/><text x="545" y="293.5" font-family="system-ui, Microsoft YaHei, sans-serif" font-size="20" fill="#172b43" font-weight="750" text-anchor="start">Seeeduino Lotus 主控</text><g data-main-board="true" data-board-width="270" data-board-height="345" data-board-total-height="352"><rect data-board-outline="true" x="545" y="317.5" width="270" height="345" rx="9" fill="url(#saved-m10-wiring-pcb)" stroke="#123654" stroke-width="2"/><rect x="551" y="323.5" width="258" height="333" rx="5" fill="none" stroke="#83b9e1" stroke-width="1" opacity=".55"/><circle cx="557" cy="329.5" r="5" fill="#dec993"/><circle cx="557" cy="329.5" r="2.7" fill="#fff"/><circle cx="803" cy="329.5" r="5" fill="#dec993"/><circle cx="803" cy="329.5" r="2.7" fill="#fff"/><circle cx="557" cy="650.5" r="5" fill="#dec993"/><circle cx="557" cy="650.5" r="2.7" fill="#fff"/><circle cx="803" cy="650.5" r="5" fill="#dec993"/><circle cx="803" cy="650.5" r="2.7" fill="#fff"/><rect x="554" y="341.5" width="8" height="7" fill="#dab955"/><rect x="556" y="343.2" width="4" height="3.5" fill="#232d37"/><rect x="554" y="352.1" width="8" height="7" fill="#dab955"/><rect x="556" y="353.8" width="4" height="3.5" fill="#232d37"/><rect x="554" y="362.7" width="8" height="7" fill="#dab955"/><rect x="556" y="364.4" width="4" height="3.5" fill="#232d37"/><rect x="554" y="373.3" width="8" height="7" fill="#dab955"/><rect x="556" y="375" width="4" height="3.5" fill="#232d37"/><rect x="554" y="383.9" width="8" height="7" fill="#dab955"/><rect x="556" y="385.59999999999997" width="4" height="3.5" fill="#232d37"/><rect x="554" y="394.5" width="8" height="7" fill="#dab955"/><rect x="556" y="396.2" width="4" height="3.5" fill="#232d37"/><rect x="554" y="405.1" width="8" height="7" fill="#dab955"/><rect x="556" y="406.8" width="4" height="3.5" fill="#232d37"/><rect x="554" y="415.7" width="8" height="7" fill="#dab955"/><rect x="556" y="417.4" width="4" height="3.5" fill="#232d37"/><rect x="554" y="426.3" width="8" height="7" fill="#dab955"/><rect x="556" y="428" width="4" height="3.5" fill="#232d37"/><rect x="554" y="436.9" width="8" height="7" fill="#dab955"/><rect x="556" y="438.59999999999997" width="4" height="3.5" fill="#232d37"/><rect x="554" y="447.5" width="8" height="7" fill="#dab955"/><rect x="556" y="449.2" width="4" height="3.5" fill="#232d37"/><rect x="554" y="458.1" width="8" height="7" fill="#dab955"/><rect x="556" y="459.8" width="4" height="3.5" fill="#232d37"/><rect x="554" y="468.7" width="8" height="7" fill="#dab955"/><rect x="556" y="470.4" width="4" height="3.5" fill="#232d37"/><rect x="554" y="479.29999999999995" width="8" height="7" fill="#dab955"/><rect x="556" y="480.99999999999994" width="4" height="3.5" fill="#232d37"/><rect x="554" y="489.9" width="8" height="7" fill="#dab955"/><rect x="556" y="491.59999999999997" width="4" height="3.5" fill="#232d37"/><rect x="554" y="500.5" width="8" height="7" fill="#dab955"/><rect x="556" y="502.2" width="4" height="3.5" fill="#232d37"/><rect x="554" y="511.1" width="8" height="7" fill="#dab955"/><rect x="556" y="512.8000000000001" width="4" height="3.5" fill="#232d37"/><rect x="554" y="521.7" width="8" height="7" fill="#dab955"/><rect x="556" y="523.4000000000001" width="4" height="3.5" fill="#232d37"/><rect x="554" y="532.3" width="8" height="7" fill="#dab955"/><rect x="556" y="534" width="4" height="3.5" fill="#232d37"/><rect x="554" y="542.9" width="8" height="7" fill="#dab955"/><rect x="556" y="544.6" width="4" height="3.5" fill="#232d37"/><rect x="554" y="553.5" width="8" height="7" fill="#dab955"/><rect x="556" y="555.2" width="4" height="3.5" fill="#232d37"/><rect x="554" y="564.1" width="8" height="7" fill="#dab955"/><rect x="556" y="565.8000000000001" width="4" height="3.5" fill="#232d37"/><rect x="554" y="574.7" width="8" height="7" fill="#dab955"/><rect x="556" y="576.4000000000001" width="4" height="3.5" fill="#232d37"/><rect x="798" y="341.5" width="8" height="7" fill="#dab955"/><rect x="800" y="343.2" width="4" height="3.5" fill="#232d37"/><rect x="798" y="352.1" width="8" height="7" fill="#dab955"/><rect x="800" y="353.8" width="4" height="3.5" fill="#232d37"/><rect x="798" y="362.7" width="8" height="7" fill="#dab955"/><rect x="800" y="364.4" width="4" height="3.5" fill="#232d37"/><rect x="798" y="373.3" width="8" height="7" fill="#dab955"/><rect x="800" y="375" width="4" height="3.5" fill="#232d37"/><rect x="798" y="383.9" width="8" height="7" fill="#dab955"/><rect x="800" y="385.59999999999997" width="4" height="3.5" fill="#232d37"/><rect x="798" y="394.5" width="8" height="7" fill="#dab955"/><rect x="800" y="396.2" width="4" height="3.5" fill="#232d37"/><rect x="798" y="405.1" width="8" height="7" fill="#dab955"/><rect x="800" y="406.8" width="4" height="3.5" fill="#232d37"/><rect x="798" y="415.7" width="8" height="7" fill="#dab955"/><rect x="800" y="417.4" width="4" height="3.5" fill="#232d37"/><rect x="798" y="426.3" width="8" height="7" fill="#dab955"/><rect x="800" y="428" width="4" height="3.5" fill="#232d37"/><rect x="798" y="436.9" width="8" height="7" fill="#dab955"/><rect x="800" y="438.59999999999997" width="4" height="3.5" fill="#232d37"/><rect x="798" y="447.5" width="8" height="7" fill="#dab955"/><rect x="800" y="449.2" width="4" height="3.5" fill="#232d37"/><rect x="798" y="458.1" width="8" height="7" fill="#dab955"/><rect x="800" y="459.8" width="4" height="3.5" fill="#232d37"/><rect x="798" y="468.7" width="8" height="7" fill="#dab955"/><rect x="800" y="470.4" width="4" height="3.5" fill="#232d37"/><rect x="798" y="479.29999999999995" width="8" height="7" fill="#dab955"/><rect x="800" y="480.99999999999994" width="4" height="3.5" fill="#232d37"/><rect x="798" y="489.9" width="8" height="7" fill="#dab955"/><rect x="800" y="491.59999999999997" width="4" height="3.5" fill="#232d37"/><rect x="798" y="500.5" width="8" height="7" fill="#dab955"/><rect x="800" y="502.2" width="4" height="3.5" fill="#232d37"/><rect x="798" y="511.1" width="8" height="7" fill="#dab955"/><rect x="800" y="512.8000000000001" width="4" height="3.5" fill="#232d37"/><rect x="798" y="521.7" width="8" height="7" fill="#dab955"/><rect x="800" y="523.4000000000001" width="4" height="3.5" fill="#232d37"/><rect x="798" y="532.3" width="8" height="7" fill="#dab955"/><rect x="800" y="534" width="4" height="3.5" fill="#232d37"/><rect x="798" y="542.9" width="8" height="7" fill="#dab955"/><rect x="800" y="544.6" width="4" height="3.5" fill="#232d37"/><rect x="798" y="553.5" width="8" height="7" fill="#dab955"/><rect x="800" y="555.2" width="4" height="3.5" fill="#232d37"/><rect x="798" y="564.1" width="8" height="7" fill="#dab955"/><rect x="800" y="565.8000000000001" width="4" height="3.5" fill="#232d37"/><rect x="798" y="574.7" width="8" height="7" fill="#dab955"/><rect x="800" y="576.4000000000001" width="4" height="3.5" fill="#232d37"/><text x="608" y="351.5" font-family="system-ui, Microsoft YaHei, sans-serif" font-size="11" fill="#e1eff6" font-weight="700" text-anchor="middle">UART</text><rect x="582" y="357.5" width="52" height="25" rx="3" fill="#f5f3e8" stroke="#adaea7" stroke-width="1.5"/><rect x="586" y="362.5" width="44" height="16" rx="1" fill="#dcded7"/><rect x="590" y="364.5" width="6" height="12" rx="1" fill="#7b8381"/><rect x="600" y="364.5" width="6" height="12" rx="1" fill="#7b8381"/><rect x="610" y="364.5" width="6" height="12" rx="1" fill="#7b8381"/><rect x="620" y="364.5" width="6" height="12" rx="1" fill="#7b8381"/><text x="678" y="351.5" font-family="system-ui, Microsoft YaHei, sans-serif" font-size="11" fill="#e1eff6" font-weight="700" text-anchor="middle">D5</text><rect x="652" y="357.5" width="52" height="25" rx="3" fill="#f5f3e8" stroke="#adaea7" stroke-width="1.5"/><rect x="656" y="362.5" width="44" height="16" rx="1" fill="#dcded7"/><rect x="660" y="364.5" width="6" height="12" rx="1" fill="#7b8381"/><rect x="670" y="364.5" width="6" height="12" rx="1" fill="#7b8381"/><rect x="680" y="364.5" width="6" height="12" rx="1" fill="#7b8381"/><rect x="690" y="364.5" width="6" height="12" rx="1" fill="#7b8381"/><text x="748" y="351.5" font-family="system-ui, Microsoft YaHei, sans-serif" font-size="11" fill="#e1eff6" font-weight="700" text-anchor="middle">I2C</text><rect x="722" y="357.5" width="52" height="25" rx="3" fill="#f5f3e8" stroke="#adaea7" stroke-width="1.5"/><rect x="726" y="362.5" width="44" height="16" rx="1" fill="#dcded7"/><rect x="730" y="364.5" width="6" height="12" rx="1" fill="#7b8381"/><rect x="740" y="364.5" width="6" height="12" rx="1" fill="#7b8381"/><rect x="750" y="364.5" width="6" height="12" rx="1" fill="#7b8381"/><rect x="760" y="364.5" width="6" height="12" rx="1" fill="#7b8381"/><text x="608" y="413.5" font-family="system-ui, Microsoft YaHei, sans-serif" font-size="11" fill="#e1eff6" font-weight="700" text-anchor="middle">D2</text><rect x="582" y="419.5" width="52" height="25" rx="3" fill="#f5f3e8" stroke="#adaea7" stroke-width="1.5"/><rect x="586" y="424.5" width="44" height="16" rx="1" fill="#dcded7"/><rect x="590" y="426.5" width="6" height="12" rx="1" fill="#7b8381"/><rect x="600" y="426.5" width="6" height="12" rx="1" fill="#7b8381"/><rect x="610" y="426.5" width="6" height="12" rx="1" fill="#7b8381"/><rect x="620" y="426.5" width="6" height="12" rx="1" fill="#7b8381"/><text x="678" y="413.5" font-family="system-ui, Microsoft YaHei, sans-serif" font-size="11" fill="#e1eff6" font-weight="700" text-anchor="middle">D6</text><rect x="652" y="419.5" width="52" height="25" rx="3" fill="#f5f3e8" stroke="#adaea7" stroke-width="1.5"/><rect x="656" y="424.5" width="44" height="16" rx="1" fill="#dcded7"/><rect x="660" y="426.5" width="6" height="12" rx="1" fill="#7b8381"/><rect x="670" y="426.5" width="6" height="12" rx="1" fill="#7b8381"/><rect x="680" y="426.5" width="6" height="12" rx="1" fill="#7b8381"/><rect x="690" y="426.5" width="6" height="12" rx="1" fill="#7b8381"/><text x="748" y="413.5" font-family="system-ui, Microsoft YaHei, sans-serif" font-size="11" fill="#e1eff6" font-weight="700" text-anchor="middle">I2C</text><rect x="722" y="419.5" width="52" height="25" rx="3" fill="#f5f3e8" stroke="#adaea7" stroke-width="1.5"/><rect x="726" y="424.5" width="44" height="16" rx="1" fill="#dcded7"/><rect x="730" y="426.5" width="6" height="12" rx="1" fill="#7b8381"/><rect x="740" y="426.5" width="6" height="12" rx="1" fill="#7b8381"/><rect x="750" y="426.5" width="6" height="12" rx="1" fill="#7b8381"/><rect x="760" y="426.5" width="6" height="12" rx="1" fill="#7b8381"/><text x="608" y="475.5" font-family="system-ui, Microsoft YaHei, sans-serif" font-size="11" fill="#e1eff6" font-weight="700" text-anchor="middle">D3</text><rect x="582" y="481.5" width="52" height="25" rx="3" fill="#f5f3e8" stroke="#adaea7" stroke-width="1.5"/><rect x="586" y="486.5" width="44" height="16" rx="1" fill="#dcded7"/><rect x="590" y="488.5" width="6" height="12" rx="1" fill="#7b8381"/><rect x="600" y="488.5" width="6" height="12" rx="1" fill="#7b8381"/><rect x="610" y="488.5" width="6" height="12" rx="1" fill="#7b8381"/><rect x="620" y="488.5" width="6" height="12" rx="1" fill="#7b8381"/><text x="678" y="475.5" font-family="system-ui, Microsoft YaHei, sans-serif" font-size="11" fill="#e1eff6" font-weight="700" text-anchor="middle">D7</text><rect x="652" y="481.5" width="52" height="25" rx="3" fill="#f5f3e8" stroke="#adaea7" stroke-width="1.5"/><rect x="656" y="486.5" width="44" height="16" rx="1" fill="#dcded7"/><rect x="660" y="488.5" width="6" height="12" rx="1" fill="#7b8381"/><rect x="670" y="488.5" width="6" height="12" rx="1" fill="#7b8381"/><rect x="680" y="488.5" width="6" height="12" rx="1" fill="#7b8381"/><rect x="690" y="488.5" width="6" height="12" rx="1" fill="#7b8381"/><text x="748" y="475.5" font-family="system-ui, Microsoft YaHei, sans-serif" font-size="11" fill="#e1eff6" font-weight="700" text-anchor="middle">A0</text><rect x="722" y="481.5" width="52" height="25" rx="3" fill="#f5f3e8" stroke="#adaea7" stroke-width="1.5"/><rect x="726" y="486.5" width="44" height="16" rx="1" fill="#dcded7"/><rect x="730" y="488.5" width="6" height="12" rx="1" fill="#7b8381"/><rect x="740" y="488.5" width="6" height="12" rx="1" fill="#7b8381"/><rect x="750" y="488.5" width="6" height="12" rx="1" fill="#7b8381"/><rect x="760" y="488.5" width="6" height="12" rx="1" fill="#7b8381"/><text x="608" y="537.5" font-family="system-ui, Microsoft YaHei, sans-serif" font-size="11" fill="#e1eff6" font-weight="700" text-anchor="middle">D4</text><rect x="582" y="543.5" width="52" height="25" rx="3" fill="#f5f3e8" stroke="#adaea7" stroke-width="1.5"/><rect x="586" y="548.5" width="44" height="16" rx="1" fill="#dcded7"/><rect x="590" y="550.5" width="6" height="12" rx="1" fill="#7b8381"/><rect x="600" y="550.5" width="6" height="12" rx="1" fill="#7b8381"/><rect x="610" y="550.5" width="6" height="12" rx="1" fill="#7b8381"/><rect x="620" y="550.5" width="6" height="12" rx="1" fill="#7b8381"/><text x="678" y="537.5" font-family="system-ui, Microsoft YaHei, sans-serif" font-size="11" fill="#e1eff6" font-weight="700" text-anchor="middle">D8</text><rect x="652" y="543.5" width="52" height="25" rx="3" fill="#f5f3e8" stroke="#adaea7" stroke-width="1.5"/><rect x="656" y="548.5" width="44" height="16" rx="1" fill="#dcded7"/><rect x="660" y="550.5" width="6" height="12" rx="1" fill="#7b8381"/><rect x="670" y="550.5" width="6" height="12" rx="1" fill="#7b8381"/><rect x="680" y="550.5" width="6" height="12" rx="1" fill="#7b8381"/><rect x="690" y="550.5" width="6" height="12" rx="1" fill="#7b8381"/><text x="748" y="537.5" font-family="system-ui, Microsoft YaHei, sans-serif" font-size="11" fill="#e1eff6" font-weight="700" text-anchor="middle">A2</text><rect x="722" y="543.5" width="52" height="25" rx="3" fill="#f5f3e8" stroke="#adaea7" stroke-width="1.5"/><rect x="726" y="548.5" width="44" height="16" rx="1" fill="#dcded7"/><rect x="730" y="550.5" width="6" height="12" rx="1" fill="#7b8381"/><rect x="740" y="550.5" width="6" height="12" rx="1" fill="#7b8381"/><rect x="750" y="550.5" width="6" height="12" rx="1" fill="#7b8381"/><rect x="760" y="550.5" width="6" height="12" rx="1" fill="#7b8381"/><rect x="667" y="324.5" width="25" height="12" fill="#d7b848"/><circle cx="672" cy="327.5" r="1.6" fill="#273643"/><circle cx="679" cy="327.5" r="1.6" fill="#273643"/><circle cx="686" cy="327.5" r="1.6" fill="#273643"/><circle cx="672" cy="333.5" r="1.6" fill="#273643"/><circle cx="679" cy="333.5" r="1.6" fill="#273643"/><circle cx="686" cy="333.5" r="1.6" fill="#273643"/><path d="M 718 602.5 h 6 M 760 602.5 h 6" stroke="#b9c3c9" stroke-width="3"/><path d="M 718 609.5 h 6 M 760 609.5 h 6" stroke="#b9c3c9" stroke-width="3"/><path d="M 718 616.5 h 6 M 760 616.5 h 6" stroke="#b9c3c9" stroke-width="3"/><path d="M 718 623.5 h 6 M 760 623.5 h 6" stroke="#b9c3c9" stroke-width="3"/><path d="M 718 630.5 h 6 M 760 630.5 h 6" stroke="#b9c3c9" stroke-width="3"/><rect x="722" y="596.5" width="40" height="39" rx="2" fill="#282e34" stroke="#121a22" stroke-width="1"/><circle cx="728" cy="602.5" r="2" fill="#8c969d"/><text x="742" y="619" font-family="system-ui, Microsoft YaHei, sans-serif" font-size="9" fill="#b5c0c9" font-weight="500" text-anchor="middle">MCU</text><path d="M 595 602.5 h 6 M 622 602.5 h 6" stroke="#b9c3c9" stroke-width="3"/><path d="M 595 609.5 h 6 M 622 609.5 h 6" stroke="#b9c3c9" stroke-width="3"/><path d="M 595 616.5 h 6 M 622 616.5 h 6" stroke="#b9c3c9" stroke-width="3"/><rect x="599" y="596.5" width="25" height="28" rx="2" fill="#282e34" stroke="#121a22" stroke-width="1"/><circle cx="605" cy="602.5" r="2" fill="#8c969d"/><text x="611.5" y="613.5" font-family="system-ui, Microsoft YaHei, sans-serif" font-size="9" fill="#b5c0c9" font-weight="500" text-anchor="middle">USB</text><rect x="647" y="589.5" width="15" height="6" rx="1" fill="#d0d7db"/><rect x="650" y="589.5" width="9" height="6" fill="#393d41"/><rect x="674" y="589.5" width="15" height="6" rx="1" fill="#d0d7db"/><rect x="677" y="589.5" width="9" height="6" fill="#393d41"/><rect x="647" y="604.5" width="15" height="6" rx="1" fill="#d0d7db"/><rect x="650" y="604.5" width="9" height="6" fill="#393d41"/><rect x="674" y="604.5" width="15" height="6" rx="1" fill="#d0d7db"/><rect x="677" y="604.5" width="9" height="6" fill="#393d41"/><rect x="647" y="619.5" width="15" height="6" rx="1" fill="#d0d7db"/><rect x="650" y="619.5" width="9" height="6" fill="#393d41"/><rect x="674" y="619.5" width="15" height="6" rx="1" fill="#d0d7db"/><rect x="677" y="619.5" width="9" height="6" fill="#393d41"/><rect x="561" y="589.5" width="15" height="30" rx="6" fill="#9ba5a9"/><ellipse cx="568.5" cy="589.5" rx="7.5" ry="4" fill="#e3e6e4"/><rect x="785" y="581.5" width="14" height="24" rx="3" fill="#c3c7bd"/><rect x="787" y="585.5" width="10" height="10" fill="#635f57"/><text x="679" y="648.5" font-family="system-ui, Microsoft YaHei, sans-serif" font-size="14" fill="#e9f5fc" font-weight="700" text-anchor="middle">Seeeduino Lotus</text><rect x="658" y="652.5" width="44" height="17" rx="4" fill="url(#saved-m10-wiring-metal)" stroke="#69757f" stroke-width="2"/><rect x="665" y="663.5" width="30" height="5" rx="2" fill="#333c43"/></g><path d="M 680 669.5 V 688" fill="none" stroke="#3b4550" stroke-width="8" stroke-linecap="round"/><text x="668" y="683" font-family="system-ui, Microsoft YaHei, sans-serif" font-size="13" fill="#526b81" font-weight="650" text-anchor="end">USB</text><rect x="605" y="688" width="150" height="46" rx="5" fill="#556675" stroke="#2e4151" stroke-width="2"/><rect x="612" y="694" width="136" height="32" rx="2" fill="#eaf5fc"/><path d="M 605 733 H 755 L 771 742 H 589 Z" fill="url(#saved-m10-wiring-metal)" stroke="#81919f"/><text x="680" y="716" font-family="system-ui, Microsoft YaHei, sans-serif" font-size="17" fill="#397daa" font-weight="700" text-anchor="middle">CodeCraft</text><text x="50" y="490" font-family="system-ui, Microsoft YaHei, sans-serif" font-size="22" fill="#536b7e" font-weight="650" text-anchor="start">勾选本组使用的模块，实时生成连接图</text><text x="32" y="850" fill="#526b81" font-size="19" font-weight="600" text-anchor="start">黄线：模块主信号 / SCL；白线：SDA（GPIO 本任务未用）；红 VCC、黑 GND。</text><text x="32" y="900" font-family="system-ui, Microsoft YaHei, sans-serif" font-size="16" fill="#64798a" font-weight="500" text-anchor="start">红黑为板内供电/公共地；跨线无连接点处不相连。</text></svg>